<?xml version="1.0" encoding="iso-8859-1"?>
<!-- Uploaded to: SVG Repo, www.svgrepo.com, Generator: SVG Repo Mixer Tools -->
<svg fill="#000000" height="800px" width="800px" version="1.1" id="Layer_1" xmlns="http://www.w3.org/2000/svg" xmlns:xlink="http://www.w3.org/1999/xlink" 
	 viewBox="0 0 512 512" xml:space="preserve">
<g>
	<g>
		<g>
			<path d="M281.401,242.831v-34.249c0-7.296-5.935-13.231-13.231-13.231H94.885c-7.296,0-13.231,5.935-13.231,13.231v34.249
				c0,7.296,5.935,13.231,13.231,13.231h173.286C275.466,256.062,281.401,250.127,281.401,242.831z M173.589,240.185H97.531v-28.957
				h76.058V240.185z M265.524,240.185h-76.058v-28.957h76.058V240.185z"/>
			<path d="M499.786,429.664h-27.146V103.211c7.101-2.594,12.194-9.397,12.194-17.385V61.127c0-10.213-8.31-18.523-18.523-18.523
				h-165.63c-10.213,0-18.523,8.31-18.523,18.523v24.698c0,4.618,1.71,8.838,4.518,12.086H265.56V80.396
				c0-10.213-8.31-18.523-18.523-18.523H116.018c-10.213,0-18.523,8.31-18.523,18.523v17.515H48.839
				c-10.213,0-18.523,8.31-18.523,18.523v24.698c0,8.382,5.6,15.472,13.252,17.75v270.782H12.214C5.48,429.664,0,435.144,0,441.88
				v15.302c0,6.734,5.48,12.214,12.214,12.214h487.573c6.734,0,12.214-5.48,12.214-12.214V441.88
				C512,435.144,506.52,429.664,499.786,429.664z M298.034,61.127c0-1.434,1.212-2.646,2.646-2.646h165.63
				c1.434,0,2.646,1.212,2.646,2.646v24.698c0,1.434-1.212,2.646-2.646,2.646H300.68c-1.434,0-2.646-1.212-2.646-2.646V61.127z
				 M456.763,104.349v325.316H310.23V104.349H456.763z M113.372,80.396c0-1.434,1.212-2.646,2.646-2.646h131.016
				c1.434,0,2.646,1.212,2.646,2.646v17.515H113.372V80.396z M46.193,116.434c0-1.434,1.212-2.646,2.646-2.646h245.514v29.991
				H48.839c-1.434,0-2.646-1.212-2.646-2.646V116.434z M237.622,406.192h-0.146v-75.288c0-30.85-25.1-55.95-55.95-55.95
				c-30.85,0-55.949,25.1-55.949,55.95v75.288h-0.145c-7.296,0-13.231,5.936-13.231,13.231v10.242H59.445V159.656h234.908v270.008
				h-43.5v-10.242C250.853,412.127,244.918,406.192,237.622,406.192z M234.976,422.069v7.596H128.079v-7.596H234.976z
				 M141.455,406.192v-75.288c0-22.097,17.976-40.073,40.072-40.073c22.097,0,40.073,17.976,40.073,40.073v75.288H141.455z
				 M271.347,453.519H15.877v-7.978h255.47V453.519z M287.224,453.519v-7.978h208.897v7.978H287.224z"/>
			<path d="M349.172,402.758h68.651c4.385,0,7.939-3.553,7.939-7.939V317.23c0-23.304-18.959-42.263-42.265-42.263
				c-23.304,0-42.264,18.958-42.264,42.263v77.589C341.233,399.204,344.786,402.758,349.172,402.758z M383.496,290.844
				c11.784,0,21.788,7.765,25.164,18.447h-50.328C361.71,298.609,371.713,290.844,383.496,290.844z M357.11,325.169h52.773v22.918
				H357.11V325.169z M357.11,363.964h52.773v22.916H357.11V363.964z"/>
			<path d="M181.526,299.652c-17.232,0-31.251,14.019-31.251,31.251c0,4.385,3.553,7.939,7.939,7.939h46.628
				c4.385,0,7.939-3.553,7.939-7.939C212.779,313.671,198.759,299.652,181.526,299.652z M168.364,322.965
				c2.696-4.453,7.588-7.436,13.163-7.436c5.576,0,10.467,2.983,13.163,7.436H168.364z"/>
			<path d="M349.172,249.631h68.651c4.385,0,7.939-3.553,7.939-7.939v-77.587c0-23.306-18.959-42.265-42.265-42.265
				c-23.304,0-42.264,18.959-42.264,42.265v77.587C341.233,246.076,344.786,249.631,349.172,249.631z M383.496,137.717
				c11.785,0,21.788,7.767,25.165,18.449h-50.329C361.71,145.484,371.712,137.717,383.496,137.717z M357.11,172.043h52.773v22.916
				H357.11V172.043z M357.11,210.836h52.773v22.916H357.11V210.836z"/>
		</g>
	</g>
</g>
</svg>