<?xml version="1.0" encoding="iso-8859-1"?>
<!-- Uploaded to: SVG Repo, www.svgrepo.com, Generator: SVG Repo Mixer Tools -->
<svg fill="#000000" height="800px" width="800px" version="1.1" id="Layer_1" xmlns="http://www.w3.org/2000/svg" xmlns:xlink="http://www.w3.org/1999/xlink" 
	 viewBox="0 0 512 512" xml:space="preserve">
<g>
	<g>
		<path d="M500.929,136.516h-18.551c2.899-8.063,4.276-16.637,4.019-25.419c-1.108-37.693-32.695-67.788-70.451-67.094
			c-4.934,0.091-9.778,0.715-14.482,1.807c-12.693-14.687-30.861-23.038-50.417-23.038c-36.778,0-66.699,29.921-66.699,66.699
			c0,9.477,2.053,18.918,5.953,27.526c-2.349,4.491-3.959,9.435-4.659,14.671c-0.216,1.617-0.339,3.235-0.38,4.848h-9.71
			c-5.762,0-10.435,4.673-10.435,10.435c0,5.762,4.673,10.435,10.435,10.435h225.376c5.762,0,10.435-4.673,10.435-10.435
			C511.364,141.189,506.693,136.516,500.929,136.516z M351.048,43.643c11.015,0,21.383,3.87,29.572,10.824
			c-4.572,2.863-8.843,6.275-12.715,10.215c-9.081,9.239-15.266,20.599-18.089,32.941c-7.006-3.479-14.93-5.124-23.024-4.566
			c-7.431,0.513-14.392,2.877-20.417,6.633c-0.759-3.32-1.155-6.731-1.155-10.218C305.219,64.201,325.778,43.643,351.048,43.643z
			 M459.54,136.516H306.142c0.032-0.693,0.096-1.387,0.189-2.082c1.489-11.138,10.699-19.782,21.899-20.555
			c8.733-0.607,17.081,3.592,21.794,10.949c2.604,4.067,7.664,5.815,12.223,4.226c4.562-1.59,7.435-6.105,6.946-10.91
			c-0.167-1.651-0.253-3.325-0.253-4.974c0-26.15,21.261-47.816,47.393-48.301c0.301-0.005,0.598-0.008,0.898-0.008
			c25.957,0,47.54,20.835,48.304,46.85C465.794,120.486,463.732,128.966,459.54,136.516z"/>
	</g>
</g>
<g>
	<g>
		<path d="M73.393,96.178c-12.534,0-23.791,5.537-31.479,14.285c-7.688-8.748-18.945-14.285-31.479-14.285
			C4.672,96.178,0,100.851,0,106.613c0,5.762,4.672,10.435,10.435,10.435c11.603,0,21.044,9.441,21.044,21.044
			c0,5.762,4.673,10.435,10.435,10.435s10.435-4.673,10.435-10.435c0-11.603,9.441-21.044,21.044-21.044
			c5.762,0,10.435-4.673,10.435-10.435C83.828,100.851,79.156,96.178,73.393,96.178z"/>
	</g>
</g>
<g>
	<g>
		<path d="M166.106,22.772c-12.534,0-23.791,5.537-31.479,14.285c-7.688-8.748-18.945-14.285-31.479-14.285
			c-5.762,0-10.435,4.673-10.435,10.435s4.673,10.435,10.435,10.435c11.603,0,21.044,9.441,21.044,21.044
			c0,5.762,4.673,10.435,10.435,10.435c5.762,0,10.435-4.673,10.435-10.435c0-11.603,9.441-21.044,21.044-21.044
			c5.762,0,10.435-4.673,10.435-10.435S171.868,22.772,166.106,22.772z"/>
	</g>
</g>
<g>
	<g>
		<path d="M501.066,468.356h-0.137c-5.762,0-10.435,4.673-10.435,10.435c0,5.762,4.673,10.435,10.435,10.435h0.137
			c5.762,0,10.435-4.673,10.435-10.435C511.501,473.029,506.828,468.356,501.066,468.356z"/>
	</g>
</g>
<g>
	<g>
		<path d="M87.868,332.534c-5.762,0-10.435,4.673-10.435,10.435v16.696c0,5.762,4.673,10.435,10.435,10.435
			c5.762,0,10.435-4.673,10.435-10.435v-16.696C98.303,337.207,93.63,332.534,87.868,332.534z"/>
	</g>
</g>
<g>
	<g>
		<path d="M124.391,332.534c-5.762,0-10.435,4.673-10.435,10.435v16.696c0,5.762,4.673,10.435,10.435,10.435
			s10.435-4.673,10.435-10.435v-16.696C134.826,337.207,130.155,332.534,124.391,332.534z"/>
	</g>
</g>
<g>
	<g>
		<path d="M87.868,386.802c-5.762,0-10.435,4.673-10.435,10.435v16.696c0,5.762,4.673,10.435,10.435,10.435
			c5.762,0,10.435-4.673,10.435-10.435v-16.696C98.303,391.474,93.631,386.802,87.868,386.802z"/>
	</g>
</g>
<g>
	<g>
		<path d="M124.391,386.802c-5.762,0-10.435,4.673-10.435,10.435v16.696c0,5.762,4.673,10.435,10.435,10.435
			s10.435-4.673,10.435-10.435v-16.696C134.826,391.474,130.155,386.802,124.391,386.802z"/>
	</g>
</g>
<g>
	<g>
		<path d="M512,314.639c0-60.088-48.886-108.974-108.974-108.974c-21.791,0-42.105,6.433-59.152,17.495
			c-0.194-0.01-0.386-0.029-0.582-0.029h-94.935v-58.437c0-5.762-4.673-10.435-10.435-10.435H134.627
			c-5.762,0-10.435,4.673-10.435,10.435v131.452H55.344c-5.762,0-10.435,4.673-10.435,10.435v121.009
			c-9.195,4.204-16.827,11.437-21.467,20.698C9.853,451.836,0,464.108,0,478.779c0,5.762,4.672,10.435,10.435,10.435h106.412
			c5.762,0,10.435-4.673,10.435-10.435c0-13.799-9.604-25.396-22.476-28.461c-6.804-15.456-21.839-25.945-39.026-26.754v-106.55
			h82.424v161.779c0,5.762,4.673,10.435,10.435,10.435s10.435-4.673,10.435-10.435v-28.338h36.885
			c5.762,0,10.435-4.673,10.435-10.435s-4.673-10.435-10.435-10.435h-36.885v-12.49h36.885c5.762,0,10.435-4.673,10.435-10.435
			s-4.673-10.435-10.435-10.435h-36.885v-12.49h36.885c5.762,0,10.435-4.673,10.435-10.435c0-5.762-4.673-10.435-10.435-10.435
			h-36.885v-12.489h36.885c5.762,0,10.435-4.673,10.435-10.435c0-5.762-4.673-10.435-10.435-10.435h-36.885v-12.49h36.885
			c5.762,0,10.435-4.673,10.435-10.435c0-5.762-4.673-10.435-10.435-10.435H158.64h-13.577v-12.522h60.897
			c5.762,0,10.435-4.673,10.435-10.435s-4.673-10.435-10.435-10.435h-60.897v-12.49h60.897c5.762,0,10.435-4.673,10.435-10.435
			s-4.673-10.435-10.435-10.435h-60.897v-12.522h60.897c5.762,0,10.435-4.673,10.435-10.435c0-5.762-4.673-10.435-10.435-10.435
			h-60.897v-20.871h82.424v303.666c0,5.762,4.673,10.435,10.435,10.435s10.435-4.673,10.435-10.435V350.407h16.736
			c5.762,0,10.435-4.673,10.435-10.435s-4.673-10.435-10.435-10.435h-16.736v-12.522h16.736c5.762,0,10.435-4.673,10.435-10.435
			s-4.673-10.435-10.435-10.435h-16.736v-12.522h16.736c5.762,0,10.435-4.673,10.435-10.435c0-5.762-4.673-10.435-10.435-10.435
			h-16.736v-18.751h71.762c-16.244,19.037-26.067,43.711-26.067,70.638c0,9.331,1.167,18.488,3.469,27.372
			c-26.801,3.168-47.662,26.014-47.662,53.653c0,26.229,18.787,48.145,43.608,53.02v19.675h-13.601
			c-5.762,0-10.435,4.673-10.435,10.435s4.673,10.435,10.435,10.435h187.304c5.762,0,10.435-4.673,10.435-10.435
			s-4.673-10.435-10.435-10.435h-54.296v-45.195C468.364,418.168,512,371.406,512,314.639z M87.017,462.546
			c0.605,2.391,2.006,4.405,3.869,5.798H29.341c0.591-0.121,1.201-0.195,1.826-0.216c4.377-0.146,8.197-3.01,9.566-7.17
			c3.26-9.917,12.466-16.579,22.907-16.579C74.694,444.378,84.307,451.849,87.017,462.546z M303.902,378.835
			c-5.762,0-10.435,4.673-10.435,10.435v37.872c-13.192-4.384-22.737-16.834-22.737-31.48c0-18.291,14.881-33.172,33.171-33.172
			c18.291,0,33.172,14.881,33.172,33.172c0,14.644-9.543,27.094-22.734,31.479v-37.871
			C314.338,383.508,309.665,378.835,303.902,378.835z M314.337,468.357v-19.675c19.23-3.779,34.825-17.787,40.878-36.105
			c11.531,5.644,23.952,9.177,36.787,10.466v45.313H314.337z M402.438,285.219c-5.762,0-10.435,4.673-10.435,10.435v43.276
			l-19.523-19.523c-4.075-4.073-10.68-4.074-14.759,0c-4.075,4.075-4.075,10.683,0,14.759l34.282,34.282v33.598
			c-12.159-1.517-23.813-5.533-34.338-11.872c-2.207-21.78-17.403-39.781-37.698-46.114c-3.34-9.416-5.044-19.286-5.044-29.42
			c0-48.58,39.523-88.104,88.104-88.104s88.104,39.523,88.104,88.104c0,45.249-34.295,82.625-78.255,87.539V364.13
			c0-0.003,0-0.007,0-0.01v-14.638l31.754-31.753c4.075-4.075,4.075-10.683,0-14.759c-4.074-4.073-10.679-4.075-14.759,0
			l-16.996,16.996v-24.311C412.874,289.892,408.202,285.219,402.438,285.219z"/>
	</g>
</g>
</svg>