<svg id="visual" viewBox="0 0 450 500" width="450" height="500" xmlns="http://www.w3.org/2000/svg" xmlns:xlink="http://www.w3.org/1999/xlink" version="1.1"><path d="M0 212L18.8 226C37.7 240 75.3 268 112.8 276.7C150.3 285.3 187.7 274.7 225.2 254.3C262.7 234 300.3 204 337.8 181.7C375.3 159.3 412.7 144.7 431.3 137.3L450 130L450 0L431.3 0C412.7 0 375.3 0 337.8 0C300.3 0 262.7 0 225.2 0C187.7 0 150.3 0 112.8 0C75.3 0 37.7 0 18.8 0L0 0Z" fill="#3382f9" stroke-linecap="round" stroke-linejoin="miter"></path></svg>