<svg id="visual" viewBox="0 0 100 10" width="100" height="10" xmlns="http://www.w3.org/2000/svg" xmlns:xlink="http://www.w3.org/1999/xlink" version="1.1"><path d="M0 4L2.8 4.2C5.7 4.3 11.3 4.7 16.8 4.8C22.3 5 27.7 5 33.2 4.7C38.7 4.3 44.3 3.7 50 3.3C55.7 3 61.3 3 66.8 3.3C72.3 3.7 77.7 4.3 83.2 4.7C88.7 5 94.3 5 97.2 5L100 5L100 0L97.2 0C94.3 0 88.7 0 83.2 0C77.7 0 72.3 0 66.8 0C61.3 0 55.7 0 50 0C44.3 0 38.7 0 33.2 0C27.7 0 22.3 0 16.8 0C11.3 0 5.7 0 2.8 0L0 0Z" fill="#4FACF7" stroke-linecap="round" stroke-linejoin="miter"></path></svg>