<svg id="visual" viewBox="0 0 675 100" width="675" height="100" xmlns="http://www.w3.org/2000/svg" xmlns:xlink="http://www.w3.org/1999/xlink" version="1.1"><path d="M0 47L28.2 51.5C56.3 56 112.7 65 169 64.8C225.3 64.7 281.7 55.3 337.8 51C394 46.7 450 47.3 506.2 50.7C562.3 54 618.7 60 646.8 63L675 66L675 101L646.8 101C618.7 101 562.3 101 506.2 101C450 101 394 101 337.8 101C281.7 101 225.3 101 169 101C112.7 101 56.3 101 28.2 101L0 101Z" fill="#3382f9" stroke-linecap="round" stroke-linejoin="miter"></path></svg>